<?xml version="1.0" encoding="UTF-8"?>
<svg width="20pt" height="20pt" version="1.1" viewBox="0 0 1200 1200" xmlns="http://www.w3.org/2000/svg">
 <path d="m1050 264h-900c-13.199 0-24-10.801-24-24s10.801-24 24-24h900c13.199 0 24 10.801 24 24s-10.801 24-24 24z" fill="white"/>
 <path d="m1050 624h-900c-13.199 0-24-10.801-24-24s10.801-24 24-24h900c13.199 0 24 10.801 24 24s-10.801 24-24 24z" fill="white"/>
 <path d="m1050 984h-900c-13.199 0-24-10.801-24-24s10.801-24 24-24h900c13.199 0 24 10.801 24 24s-10.801 24-24 24z" fill="white"/>
</svg>
