<?xml version="1.0" encoding="UTF-8"?>
<svg width="24pt" height="24pt" version="1.1" viewBox="0 0 1200 1200" xmlns="http://www.w3.org/2000/svg">
 <path d="m1087.2 318.84c-0.09375-1.5938-0.23438-3.1875-0.98438-4.6875l-83.297-168.56c-10.125-20.531-30.656-33.234-53.531-33.234h-698.81c-22.875 0-43.359 12.703-53.484 33.234l-83.344 168.56c-0.75 1.4531-0.89063 3.0938-0.98438 4.6875 0 0.28125-0.28125 0.42188-0.28125 0.70312v79.219c0 50.438 40.969 91.406 91.406 91.406 34.078 0 63.516-18.938 79.219-46.641 15.703 27.703 45.141 46.641 79.219 46.641 34.078 0 63.516-18.938 79.219-46.641 15.703 27.703 45.141 46.641 79.219 46.641 34.078 0 63.516-18.938 79.219-46.641 15.703 27.703 45.141 46.641 79.219 46.641 34.078 0 63.516-18.938 79.219-46.641 15.703 27.703 45.141 46.641 79.219 46.641 34.078 0 63.516-18.938 79.219-46.641 15.703 27.703 45.141 46.641 79.219 46.641 50.438 0 91.406-40.969 91.406-91.406v-79.219c0-0.28125-0.28125-0.42188-0.28125-0.70312zm-868.22-162.47c5.9531-12.094 18.094-19.594 31.594-19.594h698.76c13.5 0 25.641 7.5 31.641 19.594l74.625 151.03-911.34-0.046875 74.719-151.03zm-15.094 309.47c-36.938 0-67.031-30.094-67.031-67.031v-67.031h134.06v67.031c0 36.938-30.094 67.031-67.031 67.031zm158.44 0c-36.938 0-67.031-30.094-67.031-67.031v-67.031h134.06v67.031c0 36.938-30.094 67.031-67.031 67.031zm158.44 0c-36.938 0-67.031-30.094-67.031-67.031v-67.031h134.06v67.031c0 36.938-30.094 67.031-67.031 67.031zm158.44 0c-36.938 0-67.031-30.094-67.031-67.031v-67.031h134.06v67.031c0 36.938-30.094 67.031-67.031 67.031zm158.44 0c-36.938 0-67.031-30.094-67.031-67.031v-67.031h134.06v67.031c0 36.938-30.094 67.031-67.031 67.031zm225.47-67.031c0 36.938-30.094 67.031-67.031 67.031s-67.031-30.094-67.031-67.031v-67.031h134.06zm-385.13 396.1-2.7656 10.172c-9.5156 34.734-14.391 71.016-14.391 107.77v162.32c0 6.7031-5.4844 12.188-12.188 12.188s-12.188-5.4844-12.188-12.188v-162.32c0-38.953 5.1562-77.344 15.234-114.28l1.0312-3.7031h-105.52l1.0312 3.7031c10.078 36.891 15.234 75.328 15.234 114.28v162.32c0 6.7031-5.4844 12.188-12.188 12.188s-12.188-5.4844-12.188-12.188v-162.32c0-36.75-4.875-73.031-14.391-107.77l-2.7656-10.172h-129.19c-6.7031 0-12.188-5.4844-12.188-12.188s5.4844-12.188 12.188-12.188h156.52c-10.172-11.812-18.141-26.953-22.219-46.266l-4.5938-24.609c-0.65625-3.5625 0.32812-7.2188 2.625-10.031 2.3438-2.7656 5.7656-4.3594 9.375-4.3594h28.875c6.7031 0 12.188 5.4844 12.188 12.188s-5.4844 12.188-12.188 12.188h-14.25l1.875 9.9375c3.9375 18.891 15.609 51 48.938 51 25.078 0 41.578-17.297 49.031-51.375l1.7812-9.5625h-14.25c-6.7031 0-12.188-5.4844-12.188-12.188s5.4844-12.188 12.188-12.188h28.875c3.6094 0 7.0312 1.6406 9.375 4.3594 2.2969 2.8125 3.2812 6.4688 2.625 10.031l-4.5 24.375c-4.3125 19.781-12.141 34.828-21.938 46.5h156.19c6.7031 0 12.188 5.4844 12.188 12.188s-5.4844 12.188-12.188 12.188h-129.19zm-308.16 138.32 34.734 139.03c1.6875 6.5156-2.3438 13.125-8.8594 14.766-0.98438 0.28125-2.0156 0.375-2.9531 0.375-5.4844 0-10.406-3.7031-11.812-9.2344l-33.797-135.19c-4.0312-0.79687-8.0156-1.8281-12.094-1.8281h-87.141c-8.0625 0-14.766 6.2812-15.234 14.344l-7.5 120.52c-0.42188 6.4688-5.8125 11.438-12.188 11.438-0.23438 0-0.51563 0-0.75-0.046874-6.7031-0.375-11.812-6.1875-11.438-12.891l7.5-120.52c1.3125-20.859 18.703-37.172 39.609-37.172h86.812c-11.391-14.766-28.781-24.375-48.422-24.375h-101.48l-11.484 183.56c-0.375 6.7031-6.3281 13.172-12.891 11.391-6.7031-0.375-11.812-6.1875-11.391-12.891l12.094-193.74-24.234-193.97c-0.84375-6.7031 3.8906-12.75 10.547-13.594 7.2656-0.70312 12.797 3.9375 13.594 10.547l23.062 184.36h102.19c36.656 0 67.922 23.531 80.109 57.469 0.79688 1.0781 1.0781 2.1094 1.5 3.4219 0.46875 1.5469 1.5 2.7656 1.875 4.3594zm693.19-246.52-24.234 193.97 12.094 193.74c0.42188 6.7031-4.6875 12.516-11.391 12.891-6.3281 1.6875-12.516-4.6875-12.891-11.391l-11.484-183.56h-101.48c-19.641 0-37.031 9.6094-48.422 24.375h86.812c20.906 0 38.297 16.312 39.609 37.172l7.5 120.52c0.375 6.7031-4.7344 12.516-11.438 12.891-0.23438 0.046875-0.51562 0.046875-0.75 0.046875-6.375 0-11.766-4.9688-12.188-11.438l-7.5-120.52c-0.46875-8.0625-7.1719-14.344-15.234-14.344h-87.141c-4.0781 0-8.1094 1.0312-12.094 1.8281l-33.797 135.19c-1.3594 5.5312-6.3281 9.2344-11.812 9.2344-0.9375 0-1.9688-0.09375-2.9531-0.375-6.5156-1.6406-10.5-8.25-8.8594-14.766l34.734-139.03c0.375-1.5938 1.4062-2.8125 1.875-4.3594 0.375-1.2656 0.70312-2.2969 1.5-3.4219 12.188-33.938 43.453-57.469 80.109-57.469h102.19l23.062-184.36c0.79688-6.6094 6.2812-11.203 13.594-10.547 6.6562 0.84375 11.438 6.8906 10.547 13.594zm-462.37-36.516c5.7188-19.875 12.844-39.234 21.844-56.062 3.1406-5.9531 10.547-8.0625 16.5-5.0156 5.9062 3.1875 8.1562 10.547 5.0156 16.5-19.453 36.516-31.969 86.812-31.781 128.26v0.09375c0 1.8281-1.2188 3.1406-1.9688 4.6875-0.60938 1.2656-0.60938 2.8594-1.5938 3.8438-1.5 1.5-3.7031 1.875-5.7656 2.4375-0.98438 0.28125-1.6875 1.1719-2.8125 1.1719h-0.09375c-1.0781 0-1.7812-0.89062-2.8125-1.1719-2.0625-0.5625-4.3125-0.9375-5.7656-2.4375-0.98438-0.98438-1.0312-2.5781-1.5938-3.8438-0.75-1.5469-1.9688-2.8594-1.9688-4.6875v-0.09375c0.1875-44.672-11.203-93.797-29.719-128.26-3.1875-5.9062-0.98438-13.312 4.9688-16.453 5.8125-3.2344 13.266-0.98438 16.453 4.9688 8.7188 16.219 15.656 35.672 21.094 56.062zm-52.734-72.188c6.6562 8.5312 5.1562 20.812-3.375 27.516-8.5312 6.6562-20.812 5.1562-27.516-3.375-6.6562-8.5312-5.1562-20.812 3.375-27.516 8.5312-6.6562 20.812-5.1562 27.516 3.375zm38.391-30.047c6.6562 8.5312 5.1562 20.859-3.375 27.516s-20.859 5.1562-27.516-3.375-5.1562-20.859 3.375-27.516 20.859-5.1562 27.516 3.375zm-41.672-13.688c6.6562 8.5312 5.1562 20.859-3.375 27.516s-20.859 5.1562-27.516-3.375-5.1562-20.859 3.375-27.516 20.859-5.1562 27.516 3.375zm111 43.734c6.6562-8.5312 18.984-10.031 27.516-3.375s10.031 18.984 3.375 27.516-18.984 10.031-27.516 3.375-10.031-18.984-3.375-27.516zm-10.875-33.422c8.5312 6.6562 10.031 18.984 3.375 27.516s-18.984 10.031-27.516 3.375-10.031-18.984-3.375-27.516 18.984-10.031 27.516-3.375zm17.484 17.203c-8.5312-6.6562-10.031-18.984-3.375-27.516s18.984-10.031 27.516-3.375 10.031 18.984 3.375 27.516-18.984 10.031-27.516 3.375z" fill="white"/>
</svg>
